<svg width="28" height="28" viewBox="0 0 28 28" fill="none" xmlns="http://www.w3.org/2000/svg">
<path d="M14.0002 7.4375C14.0002 11.0619 11.122 14 7.57164 14H1.14307V7.4375C1.14307 3.81313 4.02123 0.875 7.57164 0.875C11.122 0.875 14.0002 3.81313 14.0002 7.4375Z" fill="#FF2546"/>
<path d="M14 20.5625C14 16.9381 16.8782 14 20.4286 14H26.8571V20.5625C26.8571 24.1869 23.979 27.125 20.4286 27.125C16.8782 27.125 14 24.1869 14 20.5625Z" fill="#FF2546"/>
<path d="M7.57178 14.134C3.94741 14.134 1.00928 17.0122 1.00928 20.5626L1.00928 26.9912L7.57178 26.9912C11.1961 26.9912 14.1343 24.113 14.1343 20.5626C14.1343 17.0122 11.1961 14.134 7.57178 14.134Z" fill="#FF2546"/>
<path d="M20.4282 13.8659C24.0526 13.8659 26.9907 10.9878 26.9907 7.43736L26.9907 1.00879L20.4282 1.00879C16.8039 1.00879 13.8657 3.88696 13.8657 7.43736C13.8657 10.9878 16.8039 13.8659 20.4282 13.8659Z" fill="#FF2546"/>
</svg>
