<svg width="24" height="24" viewBox="0 0 24 24" fill="none" xmlns="http://www.w3.org/2000/svg">
<path d="M12.7794 3.94996L21.3528 18.8C21.4318 18.9368 21.4734 19.092 21.4734 19.25C21.4734 19.4079 21.4318 19.5631 21.3528 19.7C21.2738 19.8368 21.1602 19.9504 21.0234 20.0294C20.8866 20.1084 20.7314 20.15 20.5734 20.15H3.42659C3.26861 20.15 3.11341 20.1084 2.9766 20.0294C2.83978 19.9504 2.72617 19.8368 2.64718 19.7C2.56819 19.5631 2.52661 19.4079 2.52661 19.25C2.52661 19.092 2.5682 18.9368 2.64719 18.8L11.2206 3.94996C11.2996 3.81315 11.4132 3.69955 11.55 3.62057C11.6868 3.54158 11.842 3.5 12 3.5C12.158 3.5 12.3132 3.54158 12.45 3.62057C12.5868 3.69955 12.7004 3.81315 12.7794 3.94996ZM4.98539 18.35H19.0146L12 6.19996L4.98539 18.35ZM11.1 15.65H12.9V17.45H11.1V15.65ZM11.1 9.34996H12.9V13.85H11.1V9.34996Z" fill="#171717"/>
</svg>
