<svg width="24" height="24" viewBox="0 0 24 24" fill="none" xmlns="http://www.w3.org/2000/svg">
<path d="M19.2 21.0016H17.4V19.2016C17.4 18.4855 17.1155 17.7987 16.6092 17.2924C16.1028 16.786 15.4161 16.5016 14.7 16.5016H9.3C8.58392 16.5016 7.89716 16.786 7.39081 17.2924C6.88447 17.7987 6.6 18.4855 6.6 19.2016V21.0016H4.8V19.2016C4.8 18.0081 5.27411 16.8635 6.11802 16.0196C6.96194 15.1757 8.10653 14.7016 9.3 14.7016H14.7C15.8935 14.7016 17.0381 15.1757 17.882 16.0196C18.7259 16.8635 19.2 18.0081 19.2 19.2016V21.0016ZM12 12.9016C11.2909 12.9016 10.5887 12.7619 9.93351 12.4905C9.27835 12.2191 8.68306 11.8214 8.18163 11.3199C7.68019 10.8185 7.28243 10.2232 7.01105 9.56805C6.73968 8.91289 6.6 8.2107 6.6 7.50156C6.6 6.79242 6.73968 6.09023 7.01105 5.43507C7.28243 4.77991 7.68019 4.18462 8.18163 3.68319C8.68306 3.18175 9.27835 2.78399 9.93351 2.51261C10.5887 2.24124 11.2909 2.10156 12 2.10156C13.4322 2.10156 14.8057 2.67049 15.8184 3.68319C16.8311 4.69588 17.4 6.06939 17.4 7.50156C17.4 8.93373 16.8311 10.3072 15.8184 11.3199C14.8057 12.3326 13.4322 12.9016 12 12.9016V12.9016ZM12 11.1016C12.9548 11.1016 13.8705 10.7223 14.5456 10.0471C15.2207 9.37202 15.6 8.45634 15.6 7.50156C15.6 6.54678 15.2207 5.63111 14.5456 4.95598C13.8705 4.28085 12.9548 3.90156 12 3.90156C11.0452 3.90156 10.1295 4.28085 9.45442 4.95598C8.77929 5.63111 8.4 6.54678 8.4 7.50156C8.4 8.45634 8.77929 9.37202 9.45442 10.0471C10.1295 10.7223 11.0452 11.1016 12 11.1016V11.1016Z" fill="#171717"/>
</svg>
