<svg width="24" height="24" viewBox="0 0 24 24" fill="none" xmlns="http://www.w3.org/2000/svg">
<path d="M13.125 4.5C13.125 4.83319 12.9802 5.13254 12.75 5.33854V6.75H16.5C17.7427 6.75 18.75 7.75736 18.75 9V16.5C18.75 17.7427 17.7427 18.75 16.5 18.75H7.5C6.25736 18.75 5.25 17.7427 5.25 16.5V9C5.25 7.75736 6.25736 6.75 7.5 6.75H11.25V5.33854C11.0198 5.13254 10.875 4.83319 10.875 4.5C10.875 3.87868 11.3787 3.375 12 3.375C12.6213 3.375 13.125 3.87868 13.125 4.5ZM7.5 8.25C7.08579 8.25 6.75 8.58579 6.75 9V16.5C6.75 16.9142 7.08579 17.25 7.5 17.25H16.5C16.9142 17.25 17.25 16.9142 17.25 16.5V9C17.25 8.58579 16.9142 8.25 16.5 8.25H12.75H11.25H7.5ZM4.5 10.5H3V15H4.5V10.5ZM19.5 10.5H21V15H19.5V10.5ZM9.75 13.875C10.3713 13.875 10.875 13.3713 10.875 12.75C10.875 12.1287 10.3713 11.625 9.75 11.625C9.12868 11.625 8.625 12.1287 8.625 12.75C8.625 13.3713 9.12868 13.875 9.75 13.875ZM14.25 13.875C14.8713 13.875 15.375 13.3713 15.375 12.75C15.375 12.1287 14.8713 11.625 14.25 11.625C13.6287 11.625 13.125 12.1287 13.125 12.75C13.125 13.3713 13.6287 13.875 14.25 13.875Z" fill="#171717"/>
</svg>
